<svg width="18" height="19" viewBox="0 0 18 19" fill="none" xmlns="http://www.w3.org/2000/svg">
<path d="M2.28467 14.4521C1.80322 14.4521 1.41862 14.3221 1.13086 14.062C0.848633 13.8019 0.70752 13.4588 0.70752 13.0327C0.70752 12.7173 0.77946 12.4212 0.92334 12.1445C1.06722 11.8623 1.25537 11.5994 1.48779 11.356C1.72021 11.1069 1.96647 10.8662 2.22656 10.6338C2.44238 10.4512 2.60563 10.2021 2.71631 9.88672C2.83252 9.57129 2.92106 9.21436 2.98193 8.81592C3.04281 8.41748 3.10368 7.99967 3.16455 7.5625C3.23649 6.62174 3.39697 5.7723 3.646 5.01416C3.89502 4.25049 4.24642 3.60579 4.7002 3.08008C5.15397 2.54883 5.72396 2.16146 6.41016 1.91797C6.60384 1.35905 6.93034 0.89974 7.38965 0.540039C7.84896 0.174805 8.38574 -0.0078125 9 -0.0078125C9.61426 -0.0078125 10.151 0.174805 10.6104 0.540039C11.0697 0.89974 11.3962 1.35905 11.5898 1.91797C12.276 2.16146 12.846 2.54883 13.2998 3.08008C13.7536 3.60579 14.105 4.25049 14.354 5.01416C14.6086 5.7723 14.7718 6.62174 14.8438 7.5625C14.8991 7.99967 14.9572 8.41748 15.0181 8.81592C15.0845 9.21436 15.173 9.57129 15.2837 9.88672C15.3999 10.2021 15.5632 10.4512 15.7734 10.6338C16.0335 10.8662 16.2798 11.1069 16.5122 11.356C16.7446 11.5994 16.9328 11.8623 17.0767 12.1445C17.2261 12.4212 17.3008 12.7173 17.3008 13.0327C17.3008 13.4588 17.1569 13.8019 16.8691 14.062C16.5814 14.3221 16.1968 14.4521 15.7153 14.4521H2.28467ZM9 18.0298C8.47982 18.0298 8.01221 17.9191 7.59717 17.6978C7.18766 17.4819 6.8584 17.1942 6.60938 16.8345C6.36035 16.4748 6.21924 16.0819 6.18604 15.6558H11.814C11.7808 16.0819 11.6396 16.4748 11.3906 16.8345C11.1416 17.1942 10.8096 17.4819 10.3945 17.6978C9.98503 17.9191 9.52018 18.0298 9 18.0298Z" fill="white"/>
<path d="M2.28467 14.4521C1.80322 14.4521 1.41862 14.3221 1.13086 14.062C0.848633 13.8019 0.70752 13.4588 0.70752 13.0327C0.70752 12.7173 0.77946 12.4212 0.92334 12.1445C1.06722 11.8623 1.25537 11.5994 1.48779 11.356C1.72021 11.1069 1.96647 10.8662 2.22656 10.6338C2.44238 10.4512 2.60563 10.2021 2.71631 9.88672C2.83252 9.57129 2.92106 9.21436 2.98193 8.81592C3.04281 8.41748 3.10368 7.99967 3.16455 7.5625C3.23649 6.62174 3.39697 5.7723 3.646 5.01416C3.89502 4.25049 4.24642 3.60579 4.7002 3.08008C5.15397 2.54883 5.72396 2.16146 6.41016 1.91797C6.60384 1.35905 6.93034 0.89974 7.38965 0.540039C7.84896 0.174805 8.38574 -0.0078125 9 -0.0078125C9.61426 -0.0078125 10.151 0.174805 10.6104 0.540039C11.0697 0.89974 11.3962 1.35905 11.5898 1.91797C12.276 2.16146 12.846 2.54883 13.2998 3.08008C13.7536 3.60579 14.105 4.25049 14.354 5.01416C14.6086 5.7723 14.7718 6.62174 14.8438 7.5625C14.8991 7.99967 14.9572 8.41748 15.0181 8.81592C15.0845 9.21436 15.173 9.57129 15.2837 9.88672C15.3999 10.2021 15.5632 10.4512 15.7734 10.6338C16.0335 10.8662 16.2798 11.1069 16.5122 11.356C16.7446 11.5994 16.9328 11.8623 17.0767 12.1445C17.2261 12.4212 17.3008 12.7173 17.3008 13.0327C17.3008 13.4588 17.1569 13.8019 16.8691 14.062C16.5814 14.3221 16.1968 14.4521 15.7153 14.4521H2.28467ZM9 18.0298C8.47982 18.0298 8.01221 17.9191 7.59717 17.6978C7.18766 17.4819 6.8584 17.1942 6.60938 16.8345C6.36035 16.4748 6.21924 16.0819 6.18604 15.6558H11.814C11.7808 16.0819 11.6396 16.4748 11.3906 16.8345C11.1416 17.1942 10.8096 17.4819 10.3945 17.6978C9.98503 17.9191 9.52018 18.0298 9 18.0298Z" fill="black"/>
</svg>
