<svg width="50" height="50" viewBox="0 0 50 50" fill="none" xmlns="http://www.w3.org/2000/svg">
<g clip-path="url(#clip0_186_2179)">
<rect width="50" height="50" rx="15" fill="white"/>
<path d="M50.4259 26.0672C50.4135 26.1301 50.3617 26.1846 50.3018 26.1979L46.4423 27.0555C46.3618 27.0734 46.3016 27.011 46.318 26.9266L47.241 22.1831C47.2607 22.0822 47.1722 22.0188 47.0796 22.0666C46.0945 22.5751 45.2357 22.9003 44.1147 23.1494C40.9198 23.8593 39.547 22.0933 40.2459 18.6397L41.0727 14.5949C41.0854 14.5324 41.137 14.4785 41.1966 14.4652L45.0552 13.6078C45.1362 13.5898 45.1965 13.6531 45.1791 13.7381L44.3144 17.9657C44.0398 19.2284 44.564 19.9557 46.1365 19.6063C46.6892 19.4834 47.1494 19.3101 47.8067 18.9989C47.8538 18.9767 47.8901 18.9301 47.9002 18.8794L49.1102 12.8095C49.1227 12.7467 49.1744 12.6924 49.2343 12.6791L53.0934 11.8215C53.1741 11.8036 53.2343 11.8663 53.2176 11.9509L50.4259 26.0672Z" fill="#6B008F"/>
<path d="M34.1531 29.683C34.1408 29.746 34.0889 29.8007 34.0289 29.814L30.1698 30.6716C30.0892 30.6895 30.0291 30.627 30.0455 30.5426L32.1781 19.6175C32.1946 19.533 32.1344 19.4706 32.0539 19.4885L27.7756 20.4392C27.6944 20.4572 27.6341 20.3936 27.6518 20.3085L28.2443 17.4453C28.2572 17.3829 28.3087 17.3292 28.3682 17.316L41.4118 14.4174C41.493 14.3993 41.5533 14.4629 41.5357 14.548L40.9432 17.4113C40.9303 17.4736 40.8788 17.5274 40.8193 17.5406L36.4316 18.5156C36.3715 18.529 36.3196 18.5837 36.3073 18.6466L34.1531 29.683Z" fill="#6B008F"/>
<path d="M21.0053 33.0406C17.6519 33.7858 14.7614 32.7813 14.6917 29.2566C14.6903 29.1852 14.7472 29.113 14.8173 29.0974L18.8317 28.2053C18.9018 28.1898 18.9582 28.2355 18.9616 28.3064C19.023 29.6085 20.0226 29.9862 21.2798 29.7068C22.7178 29.3873 23.6955 28.2035 24.213 26.7214C24.2446 26.6308 24.1835 26.5558 24.096 26.5752L20.0406 27.4764C19.9593 27.4945 19.899 27.4307 19.9168 27.3455L20.4589 24.7492C20.4719 24.6869 20.5233 24.6333 20.5827 24.6201L24.5419 23.7403C24.6141 23.7243 24.6719 23.6493 24.667 23.5766C24.5548 21.9272 23.7087 21.2663 22.1285 21.6175C20.9578 21.8776 19.8348 22.8839 19.4348 24.3194C19.4181 24.3792 19.3682 24.4298 19.3109 24.4425L15.3238 25.3285C15.2423 25.3466 15.1819 25.2826 15.2019 25.1972C15.9066 22.1922 18.433 19.1659 22.403 18.2836C26.197 17.4406 28.9176 18.7536 28.9176 22.7935C28.9176 26.322 26.7461 31.7649 21.0053 33.0406Z" fill="#6B008F"/>
<path d="M0.653002 37.1275C0.640752 37.1905 0.588881 37.2452 0.52876 37.2586L-3.0802 38.0606C-3.16088 38.0785 -3.22107 38.0158 -3.20435 37.9312L-0.412701 23.8148C-0.400274 23.752 -0.348502 23.6975 -0.288553 23.6842L4.91645 22.5275C4.97891 22.5136 5.03208 22.5484 5.04181 22.6094L6.33976 30.758C6.35861 30.8764 6.51831 30.8693 6.57644 30.7476L11.129 21.2146C11.1512 21.1679 11.1939 21.1325 11.2403 21.1222L16.6744 19.9147C16.755 19.8967 16.8152 19.9594 16.7985 20.044L14.0068 34.1604C13.9944 34.2232 13.9426 34.2777 13.8827 34.291L10.2735 35.0931C10.1928 35.111 10.1326 35.0482 10.1493 34.9636L12.0456 25.4079C12.0757 25.2563 11.8835 25.2236 11.8114 25.3682L6.58407 35.8477C6.56143 35.8931 6.51947 35.9273 6.47404 35.9374L4.28532 36.4238C4.22261 36.4377 4.16931 36.4026 4.15987 36.3412L2.78479 27.3969C2.76349 27.2583 2.56391 27.2971 2.53509 27.4454L0.653002 37.1275Z" fill="#6B008F"/>
</g>
<defs>
<clipPath id="clip0_186_2179">
<rect width="50" height="50" rx="15" fill="white"/>
</clipPath>
</defs>
</svg>
